<svg xmlns="http://www.w3.org/2000/svg" viewBox="0 0 620.27 649.15"><defs><style>.cls-1{fill:#efeef7;}.cls-2{fill:#f7f6fc;}.cls-3{fill:#301f7c;}.cls-4{fill:#b836f7;}.cls-5{fill:#e8e4f1;}.cls-6{fill:#4435ac;}.cls-7{fill:#edebf6;}.cls-8{fill:#d493f8;}.cls-9{fill:#4b2f9e;}.cls-10{fill:#6041a0;}.cls-11{fill:#8460cf;}.cls-12{fill:#ddd3e9;}.cls-13{fill:#ad6fd9;}.cls-14{fill:#f6f4f4;}.cls-15{fill:#1d1656;}.cls-16{fill:#eeedec;}.cls-17{fill:#431e80;}.cls-18{fill:#7a28ca;}.cls-19{fill:#962aed;}.cls-20{fill:#cecbe6;}.cls-21{fill:#fdfdfd;}.cls-22{fill:#e7d6f7;}.cls-23{fill:#5e2599;}.cls-24{fill:#361b6b;}.cls-25{fill:#722ab2;}.cls-26{fill:#b391c6;}.cls-27{fill:#c9b3db;}.cls-28{fill:#190f48;}</style></defs><title>Asset 3</title><g id="Layer_2" data-name="Layer 2"><g id="Layer_1-2" data-name="Layer 1"><path class="cls-1" d="M571.42,256.94c22.1,42.67-30.27-53.56-30.27-53.56l-35.85,74,88.22,22.22Z"/><path class="cls-2" d="M544.4,209.74,543.32,211l-10,1-102,22c-2-2-3.67-4.39-6-5.89-11.31-7.42-22.82-14.53-34.18-21.88-16.39-10.6-32.63-21.43-49.14-31.84-2-1.26-5.23-.51-7.89-.7.08,3-.6,6.21.39,8.83,2.15,5.66,5.14,11,7.79,16.47-5.07-6.46-10-13-15.23-19.35C321.63,173,316,166.52,310.36,160l-7,3.16,5-12.11,28-8a15.44,15.44,0,0,0,2.47-.31c25-7.42,49.94-14.74,74.81-22.44,5.11-1.58,9.77-4.61,14.64-7a.9.9,0,0,0,.58-.11c9,7.67,17.83,15.44,26.89,23Q500,173,544.4,209.74Z"/><path class="cls-3" d="M544.4,209.74Q500,173,455.7,136.15c-9.06-7.54-17.93-15.31-26.89-23,3-1.36,6.18-2.36,8.86-4.15Q474.08,84.6,510.31,60c5.34,21.15,10.9,42.24,16,63.46,6.37,26.71,12.35,53.51,18.45,80.28,1,4.34,2.93,5.73,7.74,4.87,15.92-2.88,31.95-5.13,47.94-7.62l-16,36.06c-1.29,2.44-2.53,4.92-3.87,7.33-2.7,4.84-5.46,9.65-8.2,14.47Z"/><path class="cls-4" d="M573.17,515q-6.82,9-13.63,18.08l-1.2,1,.08-.06-1.07,2h0l-1,1.06.07-.06-1.08,2,0,0-1,1.06,0-.05-1,1.05,0-.06-1,2v0l-1,1.05h.1l-9.24,8.58-5.89-1.7c0-4,.34-8.45-.12-12.83-.29-2.8-1.76-5.49-2.7-8.23-.72-16.67-1.38-33.34-2.28-50-.08-1.36-1.87-2.62-2.87-3.93-.74-1.35-1.15-3.16-2.28-4q-41.88-30.66-83.86-61.19c-1-.73-1.24-2.46-1.84-3.72a7.34,7.34,0,0,1,1.49.07q53.63,14.12,107.25,28.18c2.38.62,5,.42,7.46.6,5.49,1.71,10.93,3.6,16.49,5.1,14,3.78,28.1,7.38,42.16,11.05-2.58,4.67-5.1,9.39-7.78,14-1.57,2.69-3.42,5.22-5.14,7.82l-.8,1.11-1.22,1.82c-.29.39-.59.78-.88,1.18l0,.06q-12.63,17.85-25.28,35.68l.19.09Z"/><path class="cls-5" d="M336.31,143l-28,8-48-15c2-3.6,5.42-7.17,5.48-10.8.07-4.51-2.91-9-4.14-13.63-2.29-8.63-4.27-17.35-6.38-26l3.35-2.61,12.84,18.78,4.17-3c-3-7.64-5.29-15.69-9.28-22.77-2.8-5-7.94-8.66-12-12.92l95,0,10,0L369,71.71a19.23,19.23,0,0,1-1.84,4.42c-7,10.64-14.34,21.05-21,31.88-1.9,3.06-1.78,7.31-2.92,10.92C340.72,126.89,346.64,137.3,336.31,143Z"/><path class="cls-6" d="M618.38,83.91c.66,1.84,2.14,3.82,1.85,5.49-6.43,37-13.05,74-19.64,111-2.76-4.5-5.5-9-8.29-13.48-18.35-29.53-36.88-59-55-88.63-7.43-12.16-14-24.84-21-37.28,19.49,4.55,39,9.21,58.47,13.6C589.27,77.92,603.85,80.83,618.38,83.91Z"/><path class="cls-7" d="M533.31,212l10-1c-4.37,8.88-8.61,17.85-13.16,26.64-6.6,12.74-13.43,25.35-20.56,38.76,15.11,4.3,29.37,8.46,43.68,12.4,11.64,3.2,23.35,6.14,35,9.2-1.82,1.42-3.42,3.54-5.47,4.16-30.11,9-60.27,17.91-90.42,26.81l-1-.1-4.43-6.7c4.73-9.31,9.54-18.57,14.18-27.93,2.52-5.09,4.74-10.33,7.86-17.18-5.64,2.52-9.56,4.16-13.38,6-9.23,4.44-18.41,9-27.6,13.48l-16.73-16.6c-1.4-9.11-3.87-18.47,7.84-23.33,3.48-1.44,6.46-4,9.78-5.89,20.52-11.58,41.1-23.07,61.58-34.73C531.79,215.26,532.39,213.36,533.31,212Z"/><path class="cls-2" d="M492.42,329c30.15-8.9,60.31-17.76,90.42-26.81,2-.62,3.65-2.74,5.47-4.16l4.89,0,1.12,1v0q1,5.5,2,11l1,2q1.53,10,3,20l1,2q1,7.53,2,15h0q1,5.5,2,11h0q2,11,4,22h0c0,.67,0,1.34,0,2l1.07,3,.93,2c0,1.34.06,2.68.1,4l.91,2c0,1,0,2,.07,3l.93,1.94c0,1.39,0,2.78,0,4.17,0,.23,0,.46,0,.7,0,1.34-.06,2.68-.08,4-1.29-.76-2.61-1.46-3.85-2.28q-55-36.57-110.06-73.14a37.86,37.86,0,0,0-5.8-2.58C493.15,330.23,492.78,329.6,492.42,329Z"/><path class="cls-8" d="M493.52,330.86a37.86,37.86,0,0,1,5.8,2.58Q554.39,370,609.38,406.58c1.24.82,2.56,1.52,3.85,2.28l1.11.12.87,43.1c-14.06-3.67-28.13-7.27-42.16-11.05-5.56-1.5-11-3.39-16.49-5.1q-20.16-33.29-40.28-66.59C508.6,356.57,501.1,343.69,493.52,330.86Z"/><path class="cls-9" d="M516.31,61.05c7,12.44,13.55,25.12,21,37.28C555.42,128,574,157.43,592.3,187c2.79,4.48,5.53,9,8.29,13.48a.33.33,0,0,1-.19.51c-16,2.49-32,4.74-47.94,7.62-4.81.86-6.75-.53-7.74-4.87-6.1-26.77-12.08-53.57-18.45-80.28-5.06-21.22-10.62-42.31-16-63.46,0-.31,0-.63,0-.94Z"/><path class="cls-10" d="M151.27,36.12,216.9,76c1.13.69,2.3,1.31,3.46,2-.14.78,0,1.78-.46,2.31q-14.13,16.92-28.36,33.76L157.31,92c-9.59-6.49-19.12-13.08-28.8-19.44-6.6-4.33-13.41-8.34-20.13-12.5l-1-.05,2.09-1.81Z"/><path class="cls-11" d="M516.31,61.05l-6-2c0-.3-.08-.6-.13-.89a39.74,39.74,0,0,0,3.05-5.06c6.43-15.25,12.73-30.56,19.2-45.8,1-2.28,2.65-4.27,4-6.39l82,83c-14.54-3.08-29.12-6-43.61-9.26C555.26,70.26,535.8,65.6,516.31,61.05Z"/><path class="cls-12" d="M191.54,114.05q14.21-16.86,28.36-33.76c.44-.53.32-1.53.46-2.31,3.35-2.85,7.39-5.19,9.92-8.65,4.91-6.72,11.51-6.75,18.56-6.35,1.82.1,3.64,0,5.47,0,4.1,4.26,9.24,7.93,12,12.92,4,7.08,6.27,15.13,9.28,22.77l-4.17,3L258.62,82.93l-3.35,2.61c2.11,8.68,4.09,17.4,6.38,26,1.23,4.62,4.21,9.12,4.14,13.63-.06,3.63-3.52,7.2-5.48,10.8l-22-6-48-14C190.7,115.33,191.12,114.69,191.54,114.05Z"/><path class="cls-11" d="M109.43,58.2c-.69.61-1.39,1.21-2.09,1.81l-3,1-35.06,7.9c0-9.26.32-18.53-.13-27.77-.27-5.63,5.36-12.68-3-14.65L56.29,28,67.53,16.08,84.23.7c3,7,6,13.92,9.07,20.86Q101.36,39.89,109.43,58.2Z"/><path class="cls-13" d="M109.43,58.2Q101.38,39.89,93.3,21.56c-3-6.94-6-13.91-9.07-20.86,1.1-.22,2.51-1,3.25-.58q32,17.9,63.79,36Z"/><path class="cls-13" d="M469.32,36.09Q485.4,26.55,501.49,17c1-.59,1.9-1.26,2.85-1.9l4-2.18,1.3-.83a1,1,0,0,0,.73-.23l1.2-.8c6.65-3.55,13.24-7.23,20-10.55,1.27-.62,3.24.21,4.88.36-1.34,2.12-3,4.11-4,6.39-6.47,15.24-12.77,30.55-19.2,45.8a39.74,39.74,0,0,1-3.05,5.06c-9.94-5.14-19.92-10.22-29.81-15.46C476.58,40.67,473,38.3,469.32,36.09Z"/><path class="cls-5" d="M609.32,382q-2-11-4-22Q607.31,371,609.32,382Z"/><path class="cls-5" d="M600.36,332q-1.51-10-3-20Q598.85,322,600.36,332Z"/><path class="cls-5" d="M603.32,349q-1-7.51-2-15Q602.33,341.49,603.32,349Z"/><path class="cls-5" d="M596.36,310q-1-5.49-2-11Q595.35,304.51,596.36,310Z"/><path class="cls-5" d="M605.32,360q-1-5.5-2-11Q604.31,354.5,605.32,360Z"/><path class="cls-12" d="M613.34,404.13c0-1.39,0-2.78,0-4.17Z"/><path class="cls-12" d="M611.41,393c0-1.34-.07-2.68-.1-4C611.34,390.34,611.37,391.68,611.41,393Z"/><path class="cls-12" d="M614.34,409l-1.11-.12c0-1.35,0-2.69.08-4C613.65,406.21,614,407.6,614.34,409Z"/><path class="cls-12" d="M612.39,398c0-1,0-2-.07-3C612.35,396,612.37,397,612.39,398Z"/><path class="cls-12" d="M610.38,387c-.36-1-.71-2-1.07-3h1C610.33,385,610.35,386,610.38,387Z"/><path class="cls-5" d="M610.3,384h-1c0-.67,0-1.34,0-2C609.65,382.66,610,383.34,610.3,384Z"/><path class="cls-5" d="M594.32,299l-1.12-1c0-.3,0-.6,0-.9l.2-.18Z"/><path class="cls-5" d="M593.84,297.88c-.75-1.77-.58-1.38-.42-1C593.42,296.89,592.7,296.37,593.84,297.88Z"/><path class="cls-14" d="M601.49,475l.8-1.11Z"/><path class="cls-14" d="M511.53,11.07l-1.2.8Z"/><path class="cls-14" d="M509.6,12.1l-1.3.83Z"/><path class="cls-14" d="M599.39,478c.29-.4.59-.79.88-1.18C600,477.23,599.68,477.62,599.39,478Z"/><path class="cls-10" d="M11.51,157.05q-3-17.53-6-35.08-2.14-11-4.3-22C.79,96.68-.06,93.35,0,90,0,88,1.45,85.88,2.24,83.8c.7.3,1.49,1,2.09.84q32.49-7.78,64.94-15.72L104.33,61c-3.62,6.56-7,13.27-10.9,19.64Q58.52,137.32,23.36,193.79c-1,1.66-2.83,2.83-4.28,4.23Q15.3,177.55,11.51,157.05Z"/><path class="cls-15" d="M489.33,580.17c-7.12,2.1-14.31,4-21.34,6.34-14,4.68-27.85,9.66-41.79,14.44a50.51,50.51,0,0,1-5.76,1.28l-3.14-2.07-41.17-22.27c-6.09-3.3-12.16-6.65-20-10.95,4-.47,6.07-.88,8.11-.92,19.29-.37,38.59-.76,57.88-1Q474,564.42,526,564a35.93,35.93,0,0,1,5.3.74l-17.94,6.39Z"/><path class="cls-13" d="M69.27,68.92Q36.8,76.81,4.33,84.64c-.6.15-1.39-.54-2.09-.84a3.74,3.74,0,0,1-.13-.88,1,1,0,0,0,.31-.87l-.08,0c.45-.33.89-.67,1.33-1l1.7-1.82q19-19.47,38-38.95L56.29,28l9.83-1.49c8.38,2,2.75,9,3,14.65C69.59,50.39,69.27,59.66,69.27,68.92Z"/><path class="cls-16" d="M3.67,81.06c-.44.34-.88.68-1.33,1C2.79,81.74,3.23,81.4,3.67,81.06Z"/><path class="cls-16" d="M2.42,82.05a1,1,0,0,1-.31.87A2.81,2.81,0,0,1,2,82.21C2,82.15,2.28,82.1,2.42,82.05Z"/><path class="cls-17" d="M531.26,564.77A35.93,35.93,0,0,0,526,564q-51.93.45-103.86,1c-19.29.22-38.59.61-57.88,1-2,0-4.07.45-8.11.92,7.86,4.3,13.93,7.65,20,10.95l41.17,22.27c-.84.6-1.78,1.83-2.52,1.72-12.68-2-27.69,6.37-36.75-8.25-10.76,9.52-28,4.83-36.37,17.67l4.63,5.73q-7.25-2.62-14.48-5.25c-11.26-4.1-22-12-34.74-3.92-2.31,1.47-5.16,2.11-7.75,3.13-1.21-3.37-2.79-6.66-3.52-10.13-.61-3-1-6.33-.11-9.1a21.64,21.64,0,0,1,5.46-9c4.61-4.35,5.89-12.38,13.85-13,4.6-.38,9.23-.28,13.81-.77,6.23-.67,12.42-1.7,18.63-2.57,5-.42,11.2.89,14.79-1.59,11.54-7.94,22.12-17.29,33.06-26.09L431,505.61a27.68,27.68,0,0,1,4.66,1.66c17.4,9.8,34.8,19.6,52.12,29.54,15.56,8.93,31,18,46.52,27.07l0,.29Z"/><path class="cls-18" d="M534.3,563.88c-15.5-9-31-18.14-46.52-27.07-17.32-9.94-34.72-19.74-52.12-29.54a27.68,27.68,0,0,0-4.66-1.66c.13-.53.26-1.07.38-1.6q0-5.52-.05-11c6-1,12-1.93,18.05-3q39.48-7,79-14c1,1.31,2.79,2.57,2.87,3.93.9,16.66,1.56,33.33,2.28,50,.28,9.69.45,19.38,1,29.05.07,1.34,1.87,2.59,2.87,3.89Z"/><path class="cls-19" d="M537.34,562.84c-1-1.3-2.8-2.55-2.87-3.89-.53-9.67-.7-19.36-1-29.05.94,2.74,2.41,5.43,2.7,8.23.46,4.38.12,8.84.12,12.83l5.89,1.7,9.24-8.58Z"/><path class="cls-19" d="M557.35,536l1.07-2Z"/><path class="cls-19" d="M555.33,539l1.08-2Z"/><path class="cls-19" d="M552.35,543l1-2Z"/><path class="cls-14" d="M573.17,515l1.08-1.11Z"/><path class="cls-19" d="M551.34,544.08l1-1.05Z"/><path class="cls-19" d="M553.34,541.07l1-1.05Z"/><path class="cls-19" d="M554.34,540.07l1-1.06C555,539.37,554.66,539.72,554.34,540.07Z"/><path class="cls-19" d="M556.34,537.08l1-1.06Z"/><path class="cls-19" d="M558.34,534.08l1.2-1Z"/><path class="cls-20" d="M303.35,163.12l7-3.16c0,13.65-.13,27.3.07,40.94,0,2,1,4.84,2.55,6,8.63,6.44,17.58,12.45,26.39,18.65,8,5.63,16,11.18,23.78,17.11,1,.76.42,3.58.57,5.44-1.94,0-4.08.56-5.75-.09-2.09-.82-3.64-2.91-5.69-3.93-3.73-1.86-8.4-5.55-11.37-4.55-9.3,3.12-18.76,7-26.73,12.55-10.95,7.69-20.53,17.31-30.83,25.94-3.8,3.18-8,5.9-12,8.83L244,281.34l-.07-.1c-.2-.42-.39-.84-.58-1.26q-1.81-5.44-3.62-10.91c1.75-.75,3.9-1.09,5.19-2.33,14.59-14.05,29.05-28.24,43.52-42.42a36.12,36.12,0,0,0,2.73-3.39,7.61,7.61,0,0,0-5.57,1.25c-12.6,8.24-25.14,16.58-37.82,24.7-1.46.93-3.69.69-5.56,1a38.78,38.78,0,0,1,2.62-4.74c14.78-19.57,29.74-39,44.38-58.69C294.32,177.61,298.67,170.24,303.35,163.12Z"/><path class="cls-5" d="M271.35,286.83c4-2.93,8.2-5.65,12-8.83,10.3-8.63,19.88-18.25,30.83-25.94,8-5.59,17.43-9.43,26.73-12.55,3-1,7.64,2.69,11.37,4.55,2.05,1,3.6,3.11,5.69,3.93,1.67.65,3.81.1,5.75.09-.15-1.86.43-4.68-.57-5.44-7.76-5.93-15.8-11.48-23.78-17.11-8.81-6.2-17.76-12.21-26.39-18.65-1.53-1.14-2.52-3.93-2.55-6-.2-13.64-.08-27.29-.07-40.94,5.59,6.56,11.27,13,16.73,19.68,5.2,6.35,10.16,12.89,15.23,19.35,3,4.09,6,8.27,9.15,12.24,9.89,12.31,19.88,24.53,29.83,36.79q3,6.42,6,12.82c-1.63.89-4.19,1.4-4.75,2.73-2.37,5.71-4.16,11.66-6.17,17.51-13.72,3.06-27.48,6-41.16,9.24-8.06,1.93-16,4.44-24,6.69l-2-.06a20.81,20.81,0,0,0-4.17-2.08C293.87,292.12,282.61,289.49,271.35,286.83Z"/><path class="cls-7" d="M303.35,163.12c-4.68,7.12-9,14.49-14.11,21.32-14.64,19.67-29.6,39.12-44.38,58.69a38.78,38.78,0,0,0-2.62,4.74l-2.87.22-46.1-12L189.34,234v-2a6.24,6.24,0,0,0,1.91-.53c16.88-11.5,34-22.64,50.48-34.73,7.9-5.81,7.35-12.78.73-20.54-1-1.22-.72-3.7-.82-5.61s.39-3.94.05-5.81c-1.71-9.44-3.79-18.82-5.29-28.29-.32-2,1.23-4.32,1.92-6.5l22,6,48,15Z"/><path class="cls-10" d="M469.32,36.09c3.68,2.21,7.26,4.58,11.05,6.58,9.89,5.24,19.87,10.32,29.81,15.46.05.29.09.59.13.89s0,.63,0,.94Q474,84.52,437.67,109c-2.68,1.79-5.9,2.79-8.86,4.15a.9.9,0,0,1-.58.11L399.34,78.06l66.09-40.5Z"/><path class="cls-7" d="M399.34,78.06l28.89,35.22c-4.87,2.36-9.53,5.39-14.64,7-24.87,7.7-49.86,15-74.81,22.44a15.44,15.44,0,0,1-2.47.31c10.33-5.7,4.41-16.11,6.93-24.07,1.14-3.61,1-7.86,2.92-10.92,6.68-10.83,14-21.24,21-31.88A19.23,19.23,0,0,0,369,71.71L359.31,63c6.41-.32,12.86-1.25,19.2-.72,3.38.27,6.55,3.06,9.81,4.72Z"/><path class="cls-5" d="M533.31,212c-.92,1.36-1.52,3.26-2.79,4-20.48,11.66-41.06,23.15-61.58,34.73-3.32,1.87-6.3,4.45-9.78,5.89-11.71,4.86-9.24,14.22-7.84,23.33a27.94,27.94,0,0,1-2.9-.53q-25.07-7.14-50.11-14.33l-4.11-1.79c2.64-2.4,5.19-4.93,8-7.18,8.34-6.76,16.77-13.41,25.16-20.1l4-2Z"/><path class="cls-21" d="M431.32,234l-4,2-46,12c-9.95-12.26-19.94-24.48-29.83-36.79-3.19-4-6.11-8.15-9.15-12.24-2.65-5.47-5.64-10.81-7.79-16.47-1-2.62-.31-5.87-.39-8.83,2.66.19,5.9-.56,7.89.7,16.51,10.41,32.75,21.24,49.14,31.84,11.36,7.35,22.87,14.46,34.18,21.88C427.65,229.61,429.35,232,431.32,234Z"/><path class="cls-19" d="M528.34,476q-39.48,7-79,14c-6,1.06-12,2-18.05,3-.34-2.05-.69-4.1-1-6.15-1.23-8.46-2.38-16.94-3.73-25.38-.46-2.85-1.44-5.61-2.18-8.41l-12.32-20-22.55-40.72a29.41,29.41,0,0,1,4.81.58c13,3.7,26,7.5,39,11.27l7.07,2.94c.6,1.26.85,3,1.84,3.72q41.9,30.65,83.86,61.19C527.19,472.81,527.6,474.62,528.34,476Z"/><path class="cls-18" d="M440.36,407.08l-7.07-2.94q3.06-4.87,6.11-9.74,8.6-11.16,17.17-22.34c1-1.11,2-2.18,2.92-3.33q16-19.92,31.93-39.86l1,.1c.36.63.73,1.26,1.1,1.89,7.58,12.83,15.08,25.71,22.76,38.48q20.06,33.35,40.28,66.59c-2.49-.18-5.08,0-7.46-.6q-53.64-14-107.25-28.18A7.34,7.34,0,0,0,440.36,407.08Z"/><path class="cls-3" d="M491.42,328.87q-16,19.94-31.93,39.86c-.92,1.15-1.94,2.22-2.92,3.33l-15.07-3.82c8.58-12.16,17.18-24.3,25.67-36.52.73-1.05.75-2.61,1.1-3.94-.6-.72-1.06-1.78-1.82-2.1-16.59-7-33.22-13.95-50.58-21.21L390.33,352l-25.07-3-3.8-5.44a.48.48,0,0,0-.31-.61l-.79-1.13L358.23,337q9.09-28,18.17-55.92c2-5.85,3.8-11.8,6.17-17.51.56-1.33,3.12-1.84,4.75-2.73l3.64,1.29,1.32.64,1.92.52,4.11,1.79c0,1.41-.61,3.52.09,4.12a91.37,91.37,0,0,0,10.34,7.68q36.13,23.24,72.45,46.19c1.06.66,3.37-.67,5.1-1.07a1.32,1.32,0,0,0,.7.17Z"/><path class="cls-9" d="M486.29,322c-1.73.4-4,1.73-5.1,1.07q-36.36-22.89-72.45-46.19a91.37,91.37,0,0,1-10.34-7.68c-.7-.6-.1-2.71-.09-4.12q25.05,7.17,50.11,14.33a27.94,27.94,0,0,0,2.9.53q8.35,8.31,16.73,16.6Z"/><path class="cls-5" d="M486.29,322l-18.24-25.46c9.19-4.5,18.37-9,27.6-13.48,3.82-1.84,7.74-3.48,13.38-6-3.12,6.85-5.34,12.09-7.86,17.18-4.64,9.36-9.45,18.62-14.18,27.93A1.32,1.32,0,0,1,486.29,322Z"/><path class="cls-3" d="M191.54,114.05c-.42.64-.84,1.28-1.27,1.92l0,0L189,117l-32.68,27.09c-5.15,4.16-10.32,8.29-15.44,12.48Q109,182.75,77.1,208.92l-2.68,1.34L73.3,209l18-75.73q8.49-35.64,17-71.3c1.72,2.67,3.89,5.15,5.06,8,5.09,12.54,9.61,25.32,15,37.73,1.16,2.67,5.08,4.16,7.72,6.19,1.4-2.19,3.27-4.22,4.09-6.61,1.6-4.66.07-11.22,9.25-10.9L144.47,91c2.55-1.2,4.41-.47,6.34,0,2.13.49,4.33.71,6.5,1Z"/><path class="cls-9" d="M108.3,62q-8.47,35.66-17,71.3L73.3,209c-2.12-.21-4.25-.32-6.36-.65Q43.36,204.74,19.79,201l-.71-3c1.45-1.4,3.25-2.57,4.28-4.23q35.13-56.5,70.07-113.13c3.92-6.37,7.28-13.08,10.9-19.64l3-1,1,.05C108.36,60.7,108.33,61.34,108.3,62Z"/><path class="cls-3" d="M108.3,62c0-.63.06-1.27.08-1.91,6.72,4.16,13.53,8.17,20.13,12.5,9.68,6.36,19.21,13,28.8,19.44-2.17-.34-4.37-.56-6.5-1-1.93-.45-3.79-1.18-6.34,0l4.95,5.44c-9.18-.32-7.65,6.24-9.25,10.9-.82,2.39-2.69,4.42-4.09,6.61-2.64-2-6.56-3.52-7.72-6.19-5.39-12.41-9.91-25.19-15-37.73C112.19,67.12,110,64.64,108.3,62Z"/><path class="cls-5" d="M156.36,144.12,189,117l1.25-1.08,0,0,48,14c-.69,2.18-2.24,4.49-1.92,6.5,1.5,9.47,3.58,18.85,5.29,28.29.34,1.87-.15,3.88-.05,5.81s-.22,4.39.82,5.61c6.62,7.76,7.17,14.73-.73,20.54-16.45,12.09-33.6,23.23-50.48,34.73a6.24,6.24,0,0,1-1.91.53c-4.4-13-8.43-26.24-13.3-39.11C169.83,176.51,163,160.37,156.36,144.12Z"/><path class="cls-22" d="M5.3,410.1c2.67-15.13,5.29-30.26,8-45.38,3.7-20.62,7.28-41.28,11.37-61.83,1-5.05,3.77-9.75,5.73-14.62q8-14.64,15.91-29.26a5.32,5.32,0,0,0,1-1q13.57-23.49,27.12-47c5.41,9.28,11,18.47,16.18,27.85,6.82,12.29,13.36,24.73,20.21,37.44L96.28,281l-34.45,9.09c-.88,4.73-1.33,7.92-2.1,11-1.17,4.82-.76,8.39,5.12,9.65,5.17,1.11,10.22,2.79,15.29,4.36,5.35,1.66,6.94,4.74,6.34,10.82-1,9.63,0,19.45.11,29.18Z"/><path class="cls-13" d="M5.28,453.9l-.84,0Q4.88,432,5.3,410.1l81.29-55,39.59-25.32,1.07.09-3,7c-.79,1.06-1.68,2.06-2.36,3.18q-27.63,45.56-55.29,91.09c-1.48,2.44-3.41,5.54-5.8,6.34-8.94,3-18.2,5-27.27,7.64C24.08,447.91,14.7,451,5.28,453.9Z"/><path class="cls-15" d="M300.3,648.86l-57-19a20.32,20.32,0,0,1,3.21-2c14.24-5.65,28.5-11.23,42.76-16.84,2.59-1,5.44-1.66,7.75-3.13,12.71-8.08,23.48-.18,34.74,3.92q7.23,2.64,14.48,5.25l32,12.76Q354.81,637.4,331.35,645c-4.26,1.37-8.47,3.39-12.84,3.85C312.51,649.48,306.38,648.92,300.3,648.86Z"/><path class="cls-23" d="M378.29,629.79l-32-12.76-4.63-5.73c8.41-12.84,25.61-8.15,36.37-17.67,9.06,14.62,24.07,6.29,36.75,8.25.74.11,1.68-1.12,2.52-1.72l3.14,2.07c-12.05,8.18-24.08,16.39-36.16,24.51A55.21,55.21,0,0,1,378.29,629.79Z"/><path class="cls-24" d="M289.33,611c-14.26,5.61-28.52,11.19-42.76,16.84a20.32,20.32,0,0,0-3.21,2c-8.19-4.91-16.43-9.74-24.56-14.74-6.91-4.24-13.71-8.67-20.56-13l62.43-33.89-.36-1.49L87.3,563a35.07,35.07,0,0,1,3.57-2.65Q119,544.43,147.14,528.6q21-11.79,42-23.55l50.15,36.11c6.22,4.94,12.93,9.37,18.53,14.93,8.06,8,17.1,11.77,28.36,10l1.12.91,1.06-.67v-.35l21.1.37h3.81l11.13-.37,13.09.44c-6.21.87-12.4,1.9-18.63,2.57-4.58.49-9.21.39-13.81.77-8,.65-9.24,8.68-13.85,13a21.64,21.64,0,0,0-5.46,9c-.87,2.77-.5,6.15.11,9.1C286.54,604.33,288.12,607.62,289.33,611Z"/><path class="cls-2" d="M337.44,566.38l-13.09-.44,28.24-1.6c-2.19-2-3.23-3.09-4.39-4q-14-11.31-28-22.58l16.34-5.38,9.79-5.58,22.11-14.84,2-1.36,9.4-6.46,2.35-1.54-.53-.89L378,503.52,343.33,521c-2.58-.25-5.27-.11-7.7-.82-8.82-2.6-17.55-5.49-26.31-8.26q.51-10.41,1-20.8l34.26-10.08L363.26,450c.47.79,1.5,1.76,1.31,2.34-1.75,5.5-3.84,10.89-5.54,16.41-.7,2.25-.66,4.73-1,7.11l12.25.15a41.9,41.9,0,0,0,6.26-1.17C381.86,473,387.06,471,392.3,469c5.56,7.81,11.29,15.51,16.52,23.54.88,1.33.26,4.47-.75,6.08-7.15,11.34-14.69,22.45-21.83,33.79-1,1.65-.67,4.17-.95,6.29-10.94,8.8-21.52,18.15-33.06,26.09C348.64,567.27,342.45,566,337.44,566.38Z"/><path class="cls-7" d="M385.29,538.7c.28-2.12-.09-4.64.95-6.29,7.14-11.34,14.68-22.45,21.83-33.79,1-1.61,1.63-4.75.75-6.08-5.23-8-11-15.73-16.52-23.54l32.23-14,4.74,32q1.07,8.5,2.11,17c-.12.53-.25,1.07-.38,1.6Z"/><path class="cls-25" d="M431.38,504q-1-8.5-2.11-17l1-.19c.34,2.05.69,4.1,1,6.15Q431.36,498.49,431.38,504Z"/><path class="cls-24" d="M239.75,269.07q1.8,5.46,3.62,10.91c.19.42.38.84.58,1.26l.07.1q9.07,27.84,18.14,55.69c-.64,1.64-1.29,3.29-1.94,4.93q-2.33,3.56-4.67,7.11L230.33,352c-8.09-14.86-16.09-29.76-24.46-44.46-.66-1.17-4.25-1.72-5.94-1.1-10.75,3.95-21.43,8.1-32,12.6-5.54,2.37-10.72,5.59-16.06,8.43.08,1.11-.25,2.51.3,3.28,8.65,12.12,17.42,24.15,26.16,36.2-12,.18-13.26,1.16-12.09,9.08-1.25-1.52-2.54-3-3.76-4.56q-16.67-21.29-33.31-42.59l2.37-1.8c7.77-4.39,15.82-8.36,23.27-13.24,21.35-14,42.48-28.32,63.61-42.65,2.89-2,5.27-4.68,7.88-7a.88.88,0,0,0,.09-.55l7-2.43C239.9,260.29,237.42,266.62,239.75,269.07Z"/><path class="cls-26" d="M262.16,337Q253.1,309.17,244,281.34l27.33,5.49c11.26,2.66,22.52,5.29,33.75,8a20.81,20.81,0,0,1,4.17,2.08h0l-3.22,2.92c-7.23,6.2-14.43,12.43-21.7,18.59S269.56,330.84,262.16,337Z"/><path class="cls-20" d="M239.75,269.07c-2.33-2.45.15-8.78-6.34-7.9l6-13.08,2.87-.22c1.87-.3,4.1-.06,5.56-1,12.68-8.12,25.22-16.46,37.82-24.7a7.61,7.61,0,0,1,5.57-1.25,36.12,36.12,0,0,1-2.73,3.39c-14.47,14.18-28.93,28.37-43.52,42.42C243.65,268,241.5,268.32,239.75,269.07Z"/><path class="cls-26" d="M244,281.24c-.2-.42-.39-.84-.58-1.26C243.56,280.4,243.75,280.82,244,281.24Z"/><path class="cls-21" d="M424.53,455,392.3,469c-5.24,2-10.44,4-15.72,5.82a41.9,41.9,0,0,1-6.26,1.17c2.35-9.23,4.48-18.52,7.11-27.67,2.94-10.24,3.13-10.19-7.33-10.38l-1-1.1-.78-.36-4.05-.28-40-11.95-13.94-3.49q0-55-.07-109.94c0-4.62-.65-9.24-1-13.86h0l2,.06q8.91,7.62,17.81,15.23,14.57,12.39,29.15,24.76l2.13,4.85.79,1.13a.48.48,0,0,1,.31.61c-1,3.07-2.88,6.11-3,9.21a280.48,280.48,0,0,0,.07,29.43,17.94,17.94,0,0,0,4.67,10.84c13.18,12.86,27,25.06,40.28,37.79,2.8,2.67,5,4.15,8.59,2.15l12.32,20C424.44,453.7,424.48,454.37,424.53,455Z"/><path class="cls-26" d="M358.23,337q-14.58-12.39-29.15-24.76-8.93-7.59-17.81-15.23c8-2.25,15.91-4.76,24-6.69,13.68-3.27,27.44-6.18,41.16-9.24Q367.33,309,358.23,337Z"/><path class="cls-7" d="M394.2,263.29l-1.92-.52-1.32-.64-3.64-1.29q-3-6.4-6-12.82l46-12c-8.39,6.69-16.82,13.34-25.16,20.1C399.39,258.36,396.84,260.89,394.2,263.29Z"/><path class="cls-27" d="M226.44,263.6a.88.88,0,0,1-.09.55q-30.72,8.5-61.43,17.06a3.78,3.78,0,0,0-1.66,1.46c-6.2,8.24-12.5,16.4-18.51,24.78-4.58,6.4-8.79,13.08-13.16,19.63l-2.37,1.8-2,1-1.07-.09c-8.42-2.83-16.75-6-25.29-8.38-4.9-1.38-7.21-3.38-6.68-8.86,1-10.49,1.41-21,2.07-31.57l14.51-4.71c-6.85-12.71-13.39-25.15-20.21-37.44C85.37,229.49,79.81,220.3,74.4,211a3.86,3.86,0,0,1,0-.76l2.68-1.34a44.89,44.89,0,0,0,6,2.21q53.1,11.48,106.22,22.83l3.93,2.1q3.57,3,7.15,6Z"/><path class="cls-22" d="M189.34,234q-53.11-11.4-106.22-22.83a44.89,44.89,0,0,1-6-2.21Q109,182.76,140.92,156.6c5.12-4.19,10.29-8.32,15.44-12.48C163,160.37,169.83,176.51,176,192.9c4.87,12.87,8.9,26.06,13.3,39.11C189.34,232.66,189.34,233.31,189.34,234Z"/><path class="cls-12" d="M226.44,263.6l-26-21.58q-3.58-3-7.15-6l46.1,12-6,13.08Z"/><path class="cls-2" d="M412.07,433c-3.56,2-5.79.52-8.59-2.15-13.29-12.73-27.1-24.93-40.28-37.79a17.94,17.94,0,0,1-4.67-10.84,280.48,280.48,0,0,1-.07-29.43c.12-3.1,2-6.14,3-9.21l3.8,5.44,2.19,3.93q11,19.67,22.07,39.33Z"/><path class="cls-9" d="M389.52,392.29q-11-19.67-22.07-39.33a10.43,10.43,0,0,1,3.08.7Q405,374,439.4,394.4q-3,4.88-6.11,9.74c-13-3.77-26-7.57-39-11.27A29.41,29.41,0,0,0,389.52,392.29Z"/><path class="cls-11" d="M424.53,455c0-.67-.09-1.34-.14-2,.74,2.8,1.72,5.56,2.18,8.41,1.35,8.44,2.5,16.92,3.73,25.38l-1,.19Z"/><path class="cls-15" d="M439.4,394.4Q405,374,370.53,353.66a10.43,10.43,0,0,0-3.08-.7L365.26,349l25.07,3,11.38,2.17c11.64,4.84,23.25,9.75,35,14.43,1.35.54,3.21-.21,4.83-.36l15.07,3.82Q448,383.24,439.4,394.4Z"/><path class="cls-28" d="M401.71,354.17,390.33,352c8.44-15.72,16.89-31.43,25.54-47.53,17.36,7.26,34,14.19,50.58,21.21.76.32,1.22,1.38,1.82,2.1-3.53,2.75-7.39,5.17-10.54,8.3-13.65,13.59-29.67,20.15-49.07,17.71C406.39,353.5,404,354,401.71,354.17Zm20.65-40.32c-7.95-.1-13.63,5.31-13.83,13.16-.18,7.05,6,13.69,12.91,13.87,7.2.18,13.71-6.14,13.86-13.47A13.27,13.27,0,0,0,422.36,313.85Z"/><path class="cls-13" d="M401.71,354.17c2.32-.15,4.68-.67,7-.38,19.4,2.44,35.42-4.12,49.07-17.71,3.15-3.13,7-5.55,10.54-8.3-.35,1.33-.37,2.89-1.1,3.94-8.49,12.22-17.09,24.36-25.67,36.52-1.62.15-3.48.9-4.83.36C425,363.92,413.35,359,401.71,354.17Z"/><path class="cls-2" d="M361.15,343l-.79-1.13Z"/><path class="cls-5" d="M391,262.13l1.32.64Z"/><path class="cls-17" d="M74.42,210.26a3.86,3.86,0,0,0,0,.76q-13.56,23.5-27.12,47a5.32,5.32,0,0,1-1,1q-13.26-29-26.53-58,23.57,3.66,47.15,7.31c2.11.33,4.24.44,6.36.65Z"/><path class="cls-12" d="M190.29,116,189,117Z"/><path class="cls-12" d="M96.28,281c-.66,10.53-1.07,21.08-2.07,31.57-.53,5.48,1.78,7.48,6.68,8.86,8.54,2.41,16.87,5.55,25.29,8.38L86.59,355.15c-.13-9.73-1.06-19.55-.11-29.18.6-6.08-1-9.16-6.34-10.82-5.07-1.57-10.12-3.25-15.29-4.36-5.88-1.26-6.29-4.83-5.12-9.65.77-3.11,1.22-6.3,2.1-11Z"/><path class="cls-25" d="M127.25,329.92l2-1q16.65,21.3,33.31,42.59c1.22,1.55,2.51,3,3.76,4.56l14,18c6.1,10.78,6.35,10.72,18.1,7.13,10.85-3.32,21.84-6.17,32.77-9.22-1.25,2.49-2.42,5-3.76,7.46q-10.86,19.88-21.79,39.72l-10.08,15.79Q193,472.45,190.48,490c-2.26.54-4.65,1.86-6.77,1.52-28.73-4.68-57.42-9.61-86.12-14.41-5.35-.89-9.15-.09-8.39,7,.43,4-.68,8.23-.83,12.36-.73,20.24-1.32,40.48-2.18,60.72-.07,1.64-1.86,3.2-2.85,4.8L54.13,521.16c.95-.58,2.38-.94,2.78-1.79,5.41-11.47,10.37-23.15,16.14-34.43a22.41,22.41,0,0,1,8.71-8.75c5-2.78,11.37-3.26,15.91-6.49,6.59-4.68,12.15-10.85,18-16.57,3.82-3.75,8.3-7.29,10.72-11.86,3.9-7.37,6.35-15.5,9.15-22.64l-17.7,4.59c1.47-3.32,3.1-5.44,3.32-7.69,2.19-23,4.3-46.06,6-69.13.23-3.08-1.87-6.33-2.89-9.5Z"/><path class="cls-18" d="M124.26,336.9c1,3.17,3.12,6.42,2.89,9.5-1.72,23.07-3.83,46.1-6,69.13-.22,2.25-1.85,4.37-3.32,7.69l17.7-4.59c-2.8,7.14-5.25,15.27-9.15,22.64-2.42,4.57-6.9,8.11-10.72,11.86-5.82,5.72-11.38,11.89-18,16.57-4.54,3.23-10.94,3.71-15.91,6.49a22.41,22.41,0,0,0-8.71,8.75c-5.77,11.28-10.73,23-16.14,34.43-.4.85-1.83,1.21-2.78,1.79l.14-.07-1.26-1q-23.2-31.25-46.37-62.51a14.26,14.26,0,0,1-1.36-3.66c9.42-2.93,18.8-6,28.26-8.75,9.07-2.64,18.33-4.66,27.27-7.64,2.39-.8,4.32-3.9,5.8-6.34q27.75-45.5,55.29-91.09C122.58,339,123.47,338,124.26,336.9Z"/><path class="cls-23" d="M83.34,562c1-1.6,2.78-3.16,2.85-4.8.86-20.24,1.45-40.48,2.18-60.72.15-4.13,1.26-8.32.83-12.36-.76-7.1,3-7.9,8.39-7,28.7,4.8,57.39,9.73,86.12,14.41,2.12.34,4.51-1,6.77-1.52q-.69,7.53-1.4,15.06-21,11.77-42,23.55Q119,544.44,90.86,560.31A35.07,35.07,0,0,0,87.29,563l-1.8.85Z"/><path class="cls-28" d="M85.49,563.81l1.8-.85,173,3.76.49,1.42-62.56,34q-51.91-17.79-103.82-35.55C91.46,565.55,88.46,564.72,85.49,563.81Z"/><path class="cls-25" d="M53,520.07l1.26,1Z"/><path class="cls-27" d="M286.13,566.05c-11.26,1.81-20.3-2-28.36-10-5.6-5.56-12.31-10-18.53-14.93-.89-2.12-1.5-4.41-2.72-6.32-7.39-11.6-15-23.06-22.33-34.71-1.17-1.85-2.45-5.15-1.61-6.49,5.25-8.41,11.08-16.46,16.72-24.62L251,478c-3-11.3-5.54-20.62-7.77-30-.76-3.21-.63-6.62-.9-9.94l8-1c6.45,11.39,13.23,22.61,19.23,34.24,3.95,7.64,17.9,14,17.9,14s-6.43,20.64-9.32,33c2.75-2,3.95-3,5.28-3.74,2.73-1.57,5.54-3,8.31-4.5l-1,3.11-16.45,6.79-33.92-17.86-1,1.62,31.31,20.51,2.94,4.79q.79,7,1.56,14c.46,4.16.88,8.33,1.32,12.49,3.44-1.94,7-3.65,10.27-5.88,3.79-2.61,5.86-1.78,6.41,2.62.49,4,.61,8,.89,12l-5.89,1.77v.35a2.29,2.29,0,0,0-.77-.23Z"/><polygon class="cls-27" points="310.33 491.16 309.32 511.96 289.37 518.41 274.38 519.94 287.52 485.31 310.33 491.16"/><path class="cls-26" d="M229.29,469c-5.64,8.16-11.47,16.21-16.72,24.62-.83,1.34.44,4.64,1.61,6.49,7.32,11.65,14.94,23.11,22.33,34.71,1.22,1.91,1.83,4.2,2.72,6.32l-50.15-36.11q.71-7.53,1.4-15.06,2.53-17.55,5.05-35.09Z"/><path class="cls-12" d="M288.31,565.94l5.88-1.77c-.28-3.93-.4-8-.89-12-.54-4.4-2.62-5.23-6.41-2.62-3.24,2.23-6.83,3.94-10.26,5.88-.44-4.16-.87-8.33-1.33-12.49-.6-5.53-1.23-11.06-1.85-16.58l11.91,6.52c11.13,5.07,22.83,5.89,34.8,4.81q14,11.28,28,22.58c1.16.94,2.2,2,4.39,4l-28.24,1.6-11.13.37h-3.81Z"/><path class="cls-17" d="M309.41,566.31h0Z"/><path class="cls-17" d="M287.53,566.06a2.29,2.29,0,0,1,.77.23l-1.06.67A3.39,3.39,0,0,1,287.53,566.06Z"/><path class="cls-12" d="M287.53,566.06a3.39,3.39,0,0,0-.29.9l-1.12-.91Z"/><path class="cls-28" d="M287.51,485.31c-9.08-.72-13.95-6.38-17.9-14-6-11.63-12.78-22.85-19.23-34.24l4-.93,56.92,19.37c6.74,6.2,13.22,12.73,20.32,18.48,3.77,3.06,8.61,4.78,13,7.11l-34.26,10.08-20-5-1.92-.46Z"/><path class="cls-15" d="M344.59,481.08c-4.36-2.33-9.2-4.05-13-7.11-7.1-5.75-13.58-12.28-20.32-18.48l6.05-2.39c2.35-.73,4.74-1.35,7-2.19q20-7.32,39.88-14.71l4.05.28.78.36,1,1.1-6.84,12Z"/><path class="cls-15" d="M285.36,532.92l-11.91-6.52-2.65-2.19q1.79-2.15,3.58-4.27l14.77-1.46L309.32,512c8.76,2.77,17.49,5.66,26.31,8.26,2.43.71,5.12.57,7.7.82l3,5.73-9.79,5.58c-8.8-.07-17.61-.26-26.41-.17C301.85,532.27,293.61,532.66,285.36,532.92Z"/><path class="cls-14" d="M363.26,450l6.84-12c10.46.19,10.27.14,7.33,10.38-2.63,9.15-4.76,18.44-7.11,27.67l-12.25-.15c.3-2.38.26-4.86,1-7.11,1.7-5.52,3.79-10.91,5.54-16.41C364.76,451.74,363.73,450.77,363.26,450Z"/><path class="cls-10" d="M285.36,532.92c8.25-.26,16.49-.65,24.73-.74,8.8-.09,17.61.1,26.41.17l-16.34,5.38C308.19,538.81,296.49,538,285.36,532.92Z"/><path class="cls-24" d="M346.29,526.77l-3-5.73L378,503.52l1.89.59-9.4,6.46-2,1.36Z"/><path class="cls-10" d="M379.84,504.11l-1.89-.59,3.71-1.84.53.89Z"/><path class="cls-10" d="M368.4,511.93l2-1.36Z"/><path class="cls-28" d="M151.92,327.47c5.34-2.84,10.52-6.06,16.06-8.43,10.52-4.5,21.2-8.65,32-12.6,1.69-.62,5.28-.07,5.94,1.1,8.37,14.7,16.37,29.6,24.46,44.46l-11.25,2.11c-9.64-.36-19.31-.47-28.93-1.22a20.17,20.17,0,0,1-9.87-3.37C170.62,342.46,161.34,334.86,151.92,327.47ZM199.28,314c-7.91,0-13.58,5.46-13.68,13.28-.09,7.18,6.33,13.58,13.6,13.55,7,0,13.15-6.3,13.18-13.53A13,13,0,0,0,199.28,314Z"/><path class="cls-27" d="M205.61,439.12q10.9-19.86,21.79-39.72c1.34-2.44,2.51-5,3.76-7.46l22.46-39.75,1.93-3.12q2.34-3.56,4.67-7.11c.69,1.88,2,3.75,2,5.63.19,13.14.14,26.29.16,39.43q-1,2.49-2.05,5c-16.49,15-32.94,30-49.51,44.88C209.48,438.07,207.36,438.39,205.61,439.12Z"/><path class="cls-15" d="M255.55,349.07l-1.93,3.12a18.36,18.36,0,0,0-4.13,1.36c-14.14,8.58-28.12,17.42-42.35,25.84-8.77,5.19-17.89,9.78-26.85,14.64l-14-18c-1.17-7.92.13-8.9,12.09-9.08,2,.4,4.4,1.68,6,1.06,11.64-4.42,23.13-9.22,34.66-13.9L230.33,352Z"/><path class="cls-17" d="M131.59,327.08c4.37-6.55,8.58-13.23,13.16-19.63,6-8.38,12.31-16.54,18.51-24.78a3.78,3.78,0,0,1,1.66-1.46q30.71-8.59,61.43-17.06c-2.61,2.36-5,5.08-7.88,7-21.13,14.33-42.26,28.65-63.61,42.65C147.41,318.72,139.36,322.69,131.59,327.08Z"/><path class="cls-12" d="M262.37,387c0-13.14,0-26.29-.16-39.43,0-1.88-1.3-3.75-2-5.63.65-1.64,1.3-3.29,1.94-4.93,7.4-6.19,14.83-12.33,22.19-18.56s14.47-12.39,21.71-18.59c-.15,1.53.13,3.28-.52,4.56-10.36,20.79-20.73,41.58-31.35,62.25C270.61,373.65,266.33,380.25,262.37,387Z"/><path class="cls-11" d="M219.08,354.11c-11.53,4.68-23,9.48-34.66,13.9-1.64.62-4-.66-6-1.06-8.74-12.05-17.51-24.08-26.16-36.2-.55-.77-.22-2.17-.3-3.28,9.42,7.39,18.7,15,28.36,22a20.17,20.17,0,0,0,9.87,3.37C199.77,353.64,209.44,353.75,219.08,354.11Z"/><path class="cls-5" d="M262.37,387c4-6.77,8.24-13.37,11.82-20.33,10.62-20.67,21-41.46,31.35-62.25.65-1.28.37-3,.52-4.56l3.21-2.92c.35,4.62,1,9.24,1,13.86q.14,55,.07,109.94l-56,15.36-4,.93-8,1c2-5.76,3.88-11.59,6.12-17.26,3.82-9.65,7.89-19.19,11.86-28.78Q261.34,389.51,262.37,387Z"/><path class="cls-10" d="M254.38,436.12l56-15.36,13.94,3.49-13.08,1.48,6.15,27.37-6.05,2.39Z"/><path class="cls-11" d="M317.35,453.1l-6.15-27.37,13.08-1.48,40,11.95q-19.93,7.37-39.88,14.71C322.09,451.75,319.7,452.37,317.35,453.1Z"/><path class="cls-11" d="M369.11,436.84l-.78-.36Z"/><path class="cls-14" d="M422.36,313.85a13.27,13.27,0,0,1,12.94,13.56c-.15,7.33-6.66,13.65-13.86,13.47-6.91-.18-13.09-6.82-12.91-13.87C408.73,319.16,414.41,313.75,422.36,313.85Z"/><path class="cls-12" d="M260.32,392c-4,9.59-8,19.13-11.86,28.78-2.24,5.67-4.09,11.5-6.12,17.26.28,3.32.14,6.73.9,9.94,2.23,9.4,4.82,18.72,7.77,30l-21.72-9L195.53,454.9l10.08-15.78c1.75-.73,3.87-1.05,5.2-2.24C227.38,422,243.83,407,260.32,392Z"/><path class="cls-17" d="M180.29,394c9-4.86,18.08-9.45,26.85-14.64,14.23-8.42,28.21-17.26,42.35-25.84a18.36,18.36,0,0,1,4.13-1.36l-22.46,39.75c-10.93,3.05-21.92,5.9-32.77,9.22C186.64,404.75,186.39,404.81,180.29,394Z"/><path class="cls-24" d="M274.38,519.94q-1.8,2.13-3.58,4.27L239.5,503.7l.91-1.65Z"/><path class="cls-27" d="M290.33,486.12c-.33.47-.66.93-1,1.4l-.94-1.86Z"/><path class="cls-5" d="M199.28,314a13,13,0,0,1,13.1,13.3c0,7.23-6.14,13.5-13.18,13.53-7.27,0-13.69-6.37-13.6-13.55C185.7,319.47,191.37,314,199.28,314Z"/></g></g></svg>